<?xml version="1.0" encoding="UTF-8" standalone="no"?><!DOCTYPE svg PUBLIC "-//W3C//DTD SVG 1.1//EN" "http://www.w3.org/Graphics/SVG/1.1/DTD/svg11.dtd"><svg width="100%" height="100%" viewBox="0 0 2134 2134" version="1.1" xmlns="http://www.w3.org/2000/svg" xmlns:xlink="http://www.w3.org/1999/xlink" xml:space="preserve" xmlns:serif="http://www.serif.com/" style="fill-rule:evenodd;clip-rule:evenodd;stroke-linejoin:round;stroke-miterlimit:2;"><path d="M451.667,0l95.833,0l0,95l88.333,0l0,-95l95.834,0l-0,287.5l-95.834,0l0,-95.833l-87.5,-0l0,95.833l-96.666,0m406.666,-191.667l-84.583,0l0,-95.833l265.417,0l-0,95.833l-85,0l-0,191.667l-95.834,0m222.917,-287.5l100.417,0l61.666,101.25l61.667,-101.25l100.417,0l-0,287.5l-95.834,0l0,-142.5l-67.083,103.333l-67.083,-103.333l-0,142.5l-94.167,0m371.667,-287.5l95.833,0l0,192.5l135.833,0l0,95l-231.666,0" style="fill:#fff;fill-rule:nonzero;"/><path d="M448.333,1962.5l-137.5,-1543.33l1511.67,-0l-137.5,1542.5l-619.583,171.666" style="fill:#e44d26;fill-rule:nonzero;"/><path d="M1066.67,2002.08l-0,-1456.25l617.916,0l-117.916,1316.67" style="fill:#f16529;fill-rule:nonzero;"/><path d="M591.667,734.583l475,0l-0,189.167l-267.5,0l17.5,193.75l250,0l-0,188.75l-423.334,0m8.334,95l190,0l13.333,151.25l211.667,56.667l-0,197.5l-388.334,-108.334" style="fill:#ebebeb;fill-rule:nonzero;"/><path d="M1540,734.583l-474.167,0l0,189.167l456.667,0m-17.083,193.75l-439.584,0l0,189.167l233.334,-0l-22.084,245.833l-211.25,56.667l0,196.666l387.5,-107.5" style="fill:#fff;fill-rule:nonzero;"/></svg>